PathFileType	4	(X/Y/Z)	C:\Users\chris\Documents\GitHub\baseballds\vids\pitch0_Sports2D\pitch0_Sports2D_m_person00.trc
DataRate	CameraRate	NumFrames	NumMarkers	Units	OrigDataRate	OrigDataStartFrame	OrigNumFrames
30	30	10	22	m	30	82	110
Frame#	Time	Hip			RHip			RKnee			RAnkle			RBigToe			RSmallToe			RHeel			LHip			LKnee			LAnkle			LBigToe			LSmallToe			LHeel			Neck			Head			Nose			RShoulder			RElbow			RWrist			LShoulder			LElbow			LWrist		
		X1	Y1	Z1	X2	Y2	Z2	X3	Y3	Z3	X4	Y4	Z4	X5	Y5	Z5	X6	Y6	Z6	X7	Y7	Z7	X8	Y8	Z8	X9	Y9	Z9	X10	Y10	Z10	X11	Y11	Z11	X12	Y12	Z12	X13	Y13	Z13	X14	Y14	Z14	X15	Y15	Z15	X16	Y16	Z16	X17	Y17	Z17	X18	Y18	Z18	X19	Y19	Z19	X20	Y20	Z20	X21	Y21	Z21	X22	Y22	Z22
82	2.7333333333333334	2.3279587805636193	0.6270092143449577	0.0	2.228864263285372	0.5927094397575579	0.0	1.9866937670042109	0.22431482161024452	0.0	1.5617769756840294	0.19381875863759343	0.0	1.4145168359867166	0.04810296725286247	0.0	1.3901542659729125	0.08193188203118143	0.0	1.5133066054614135	0.21513607015089187	0.0	2.420607554147566	0.5990786863465957	0.0	2.6819560135020533	0.41263485514909276	0.0	2.7993837487152957	0.023988291527641217	0.0	2.943223892600437	-0.06333333272392642	0.0	2.940439976231898	-0.04092990899347916	0.0	2.7503290529305326	-0.037452269102614025	0.0	2.3005832047114527	1.1867827218559932	0.0	2.292731085394335	1.4646864918906337	0.0	2.3829797966114987	1.3262538835808342	0.0	2.1586555985624956	1.134224783787932	0.0	1.9202135833951375	1.1509257543553675	0.0	1.9240789248068038	1.2725125054924966	0.0	2.445725402192053	1.114247330514279	0.0	2.544093471468217	0.8627425622376024	0.0	2.6794350460827445	0.8669664991033994	0.0
83	2.7666666666666666	2.3860867534545043	0.6289199556577818	0.0	2.301058634603558	0.6018719139813575	0.0	2.087942681353552	0.2035452978470228	0.0	1.6618630566308845	0.20080594156847054	0.0	1.5255070416503576	0.06552357590888169	0.0	1.5036797712058543	0.09605409933629007	0.0	1.6114162001660628	0.23283026532740117	0.0	2.468857005966341	0.5950766262819606	0.0	2.693629207559653	0.40375299320155467	0.0	2.8217794171767103	0.019106048293006127	0.0	2.97493882816877	-0.061494923569980445	0.0	2.962251888169126	-0.041203708162400224	0.0	2.777843127569054	-0.042970243643242916	0.0	2.406564431626736	1.1790859713070256	0.0	2.390875876289365	1.4386219206721098	0.0	2.473455246276718	1.3076619536286949	0.0	2.352341124328526	1.1600921264945245	0.0	2.212083564863744	1.2255749807913472	0.0	2.120420590603506	1.3090741536568442	0.0	2.4681196882698493	1.0808999976557387	0.0	2.528568534857912	0.7865181667543669	0.0	2.6561646489092414	0.7738387276893811	0.0
84	2.8	2.4092795952715793	0.6479351834741621	0.0	2.3433425993942962	0.6265208685027657	0.0	2.1910717835830695	0.1840581494930176	0.0	1.7663060905652928	0.19438417439872516	0.0	1.6431904323291275	0.06615726633750153	0.0	1.6224831814405367	0.09403073438740882	0.0	1.7167042085817097	0.23365677147084074	0.0	2.475284924584186	0.6169245846683642	0.0	2.691334496363788	0.40205462155853455	0.0	2.8256899558386177	0.018162495919953496	0.0	2.987428224243031	-0.05714099820862055	0.0	2.968093586202392	-0.036628886141121655	0.0	2.7886100336456647	-0.04565617673718232	0.0	2.4846525946144196	1.1853089318494157	0.0	2.476979012266492	1.4225644680926839	0.0	2.5625068912125264	1.302492370447457	0.0	2.527437475006107	1.187868154463599	0.0	2.5456197992875214	1.2885805629473575	0.0	2.4625503153962343	1.3538856180888994	0.0	2.452639369553187	1.0765004790064716	0.0	2.4886295137890904	0.7935005631738049	0.0	2.6209066478603367	0.7453202217873327	0.0
85	2.8333333333333335	2.4046254266071383	0.6803285306338835	0.0	2.365603699415832	0.6633757856917988	0.0	2.280521607143308	0.1862180853305353	0.0	1.8677869246186511	0.19468743889574533	0.0	1.7534200795599684	0.06637247938912341	0.0	1.7329956735251362	0.09245429601460588	0.0	1.819593506338893	0.23399074195178454	0.0	2.4446941794082027	0.6588198900927809	0.0	2.6778571087031873	0.40372566704716617	0.0	2.8195428328977594	0.023579256350093003	0.0	2.9846628420113506	-0.05325438017561513	0.0	2.967945488441118	-0.03141061671427009	0.0	2.785773232631761	-0.044761369754357135	0.0	2.5403582725967375	1.194862413297855	0.0	2.562006679668793	1.4158207817689175	0.0	2.6433896030234445	1.3004657935606754	0.0	2.6487039331216002	1.2007894862476023	0.0	2.820799346951587	1.2810181386831314	0.0	2.8539564589397672	1.3375339614415434	0.0	2.4362183502680583	1.093924407891023	0.0	2.4306812087815923	0.8424987824571658	0.0	2.5671750307629444	0.7581680207895644	0.0
86	2.8666666666666667	2.3978066664815167	0.7226604722145231	0.0	2.387459811793316	0.7091681015410835	0.0	2.341914357227752	0.21667717345200152	0.0	1.9493107121326623	0.21409924043599124	0.0	1.8361766078934663	0.07730088667065384	0.0	1.8177715360850835	0.10422234136206918	0.0	1.9035246971118416	0.24745332102715514	0.0	2.4026772368469778	0.7111744345443208	0.0	2.660196993773397	0.40547616103761414	0.0	2.8109256893653067	0.03086826198899248	0.0	2.9816816792153524	-0.04918084481468408	0.0	2.9702651178715835	-0.026257962394995914	0.0	2.7782969237657587	-0.03969576377290738	0.0	2.581771356463313	1.2075278843196504	0.0	2.6482710486284966	1.4190568225688553	0.0	2.706069043291076	1.2976097848776549	0.0	2.7158027315444895	1.2025260693554691	0.0	2.955294839838472	1.1951990303131637	0.0	3.0966191390563123	1.2017591324428603	0.0	2.4355406977119154	1.126892275048065	0.0	2.363471286083372	0.8952698849707786	0.0	2.4967818585711994	0.798865656671965	0.0
87	2.9	2.408409240280756	0.7711820582201712	0.0	2.4214881202917695	0.7580112232874615	0.0	2.3746088065621844	0.26350722485987055	0.0	1.997993920224743	0.2517943627057479	0.0	1.8807068725105862	0.10218931611902791	0.0	1.8665905510117113	0.13107343853100165	0.0	1.9545086064915478	0.27916206480644296	0.0	2.376271815099718	0.7660673034839739	0.0	2.646629946910479	0.41052850819311065	0.0	2.8043063092157943	0.03455537233284172	0.0	2.982989589341265	-0.04422673550186402	0.0	2.9724531096339084	-0.02137491315871659	0.0	2.7749298739575408	-0.03299405597515708	0.0	2.614387080516201	1.2298080297941396	0.0	2.726195523965123	1.4372039949620348	0.0	2.7518262812775895	1.3024261158841737	0.0	2.753475374374138	1.2010652017084253	0.0	2.9470965859476643	1.0714568313534907	0.0	3.0899084979938025	0.999721507563306	0.0	2.4413597431393135	1.1693669102484836	0.0	2.307330894636983	0.9447122670313765	0.0	2.4373485247264552	0.8562864547958127	0.0
88	2.933333333333333	2.4345959880239962	0.82068535354772	0.0	2.4662202724224507	0.8038845050547011	0.0	2.395304865176111	0.31446849829247336	0.0	2.0188906327840157	0.3027546822338289	0.0	1.891781201819502	0.1438107833900978	0.0	1.8828040669022954	0.1718472715239477	0.0	1.9745412877990354	0.3300760546627404	0.0	2.374496903233664	0.8181435602029666	0.0	2.6398490419950096	0.422897067101749	0.0	2.7995280855409224	0.035155106909155784	0.0	2.9812207405189866	-0.036568660291717264	0.0	2.969200540461906	-0.015616711558790476	0.0	2.7758847117400047	-0.028376889436051093	0.0	2.641251846455136	1.2594523728093954	0.0	2.784334561765212	1.4657917929510027	0.0	2.7868879233477335	1.3180873460210585	0.0	2.781847572647955	1.198470470356247	0.0	2.857152932606866	0.9738673248269487	0.0	2.8969880889161166	0.8643850902734993	0.0	2.444564783591665	1.213798614406355	0.0	2.278041262342144	1.001983135542743	0.0	2.406069373312766	0.9105523686391476	0.0
89	2.966666666666667	2.463949689829862	0.8661008892163519	0.0	2.5108818402533246	0.8450727760572404	0.0	2.426943413240142	0.36619278469772915	0.0	2.0330864019660777	0.36358473041436523	0.0	1.8876689085584517	0.20315706917790946	0.0	1.8839462289489775	0.22753975077941846	0.0	1.9837962632938648	0.3978017280539195	0.0	2.388811386801111	0.863165912187211	0.0	2.6365171716478817	0.43946685999190893	0.0	2.794647161861735	0.03651018510357431	0.0	2.97413776287628	-0.02628604677607377	0.0	2.9621479544770284	-0.0089205339602995	0.0	2.7759333630190492	-0.026211497902479765	0.0	2.663606900392836	1.289429563883149	0.0	2.8185489259107097	1.4938149886979044	0.0	2.812682778779853	1.3399575080349202	0.0	2.8050258258587806	1.1968286815602338	0.0	2.7581192097218	0.9494336705600103	0.0	2.668599893368836	0.8782776778058725	0.0	2.4506220315365055	1.2575475983957467	0.0	2.275100927177585	1.075649263525181	0.0	2.3799105019087237	0.9606178593711768	0.0
90	3.0	2.4884076870903784	0.9013592876303704	0.0	2.5469296635435854	0.8796213305510217	0.0	2.483192274646507	0.4156041874968678	0.0	2.06902486560936	0.42942911983569143	0.0	1.902356082500407	0.2768490383293993	0.0	1.9068162542455078	0.2993327158917206	0.0	2.0117086626850575	0.47188277749724633	0.0	2.407955678693924	0.8955714307317242	0.0	2.6325507669249744	0.4493792091910617	0.0	2.7903474505178876	0.03914808565849774	0.0	2.966471384787422	-0.0168350052736577	0.0	2.954149240938735	-0.004029243327323345	0.0	2.773956841295423	-0.025371263523487307	0.0	2.6813758782186867	1.3157398374700564	0.0	2.83307507388856	1.5157698176433088	0.0	2.828401085936898	1.3623743781718072	0.0	2.820138429692948	1.2009941878691313	0.0	2.6986832908510037	0.9825326855422098	0.0	2.519306081774494	0.9962018370489165	0.0	2.466998631371848	1.2996293530234837	0.0	2.2863146457436083	1.1540264131461584	0.0	2.3370228101883233	1.0250261187406897	0.0
91	3.033333333333333	2.5068504800704656	0.9203970158698142	0.0	2.5739211560181694	0.9030443457593499	0.0	2.565555466093275	0.45539666370806575	0.0	2.1544145785617865	0.4944084783355581	0.0	1.9792501433414087	0.3612043655627827	0.0	2.0029904997630728	0.38474180066026775	0.0	2.0874037712235833	0.5411430842051217	0.0	2.424718562367364	0.911352382404395	0.0	2.627116338348276	0.4441379420200271	0.0	2.7876147731704948	0.040075523384796925	0.0	2.9594393190818034	-0.010215583772859027	0.0	2.943435026711408	-0.002339472506376042	0.0	2.7716895248441773	-0.02553063165029104	0.0	2.69305038046946	1.3362077749874273	0.0	2.835649046763368	1.533712391677484	0.0	2.8375769708780925	1.3809475569862641	0.0	2.826978962964346	1.2135110738670642	0.0	2.6861527739804596	1.014255661817253	0.0	2.4698251541084324	1.092619192553031	0.0	2.487919077769539	1.3353120514831036	0.0	2.294231814056914	1.2131448128572897	0.0	2.288388663552094	1.1024053044716082	0.0
